<svg width="350" height="719" viewBox="0 0 350 719" fill="none" xmlns="http://www.w3.org/2000/svg">
<mask id="path-1-inside-1_4272_5224" fill="white">
<path d="M350 84.561V633.939H324.825V640.763H322.985V647.586H320.686V654.41H317.755V661.234H314.249V668.057H309.938V674.881H304.879V681.704H298.755V688.528H291.257V695.352H282.061V702.175H271.259V708.999H259.608V713.755H246.876V717.208H233.711V718.5H116.29V717.208H103.125V713.755H90.3936V708.999H78.7428V702.175H67.9403V695.352H58.7436V688.528H51.2458V681.704H45.1216V674.881H40.0633V668.057H35.7524V661.234H32.2462V654.41H29.3148V647.586H27.0158V640.763H25.1763V633.939H0.00106123L0.00106123 621.981L0.00106146 98.2083L0.00106146 84.561H25.1763V77.7374H27.0158V70.9137H29.3148V64.0901H32.2462V57.2664H35.7524V50.4428H40.0633V43.6191H45.1216V36.7958H51.2458V29.9718H58.7436V23.1482H67.9403V16.3249H78.7428V9.50119H90.3936V4.74551H103.125V1.29219L116.29 1.29219V0L233.711 0V1.29219L246.876 1.29219V4.74551H259.608V9.50119H271.259V16.3249H282.061V23.1482H291.257V29.9718H298.755V36.7958H304.879V43.6191H309.938V50.4428H314.249V57.2664H317.755V64.0901H320.686V70.9137H322.985V77.7374H324.825V84.561H350Z"/>
</mask>
<path d="M350 84.561V633.939H324.825V640.763H322.985V647.586H320.686V654.41H317.755V661.234H314.249V668.057H309.938V674.881H304.879V681.704H298.755V688.528H291.257V695.352H282.061V702.175H271.259V708.999H259.608V713.755H246.876V717.208H233.711V718.5H116.29V717.208H103.125V713.755H90.3936V708.999H78.7428V702.175H67.9403V695.352H58.7436V688.528H51.2458V681.704H45.1216V674.881H40.0633V668.057H35.7524V661.234H32.2462V654.41H29.3148V647.586H27.0158V640.763H25.1763V633.939H0.00106123L0.00106123 621.981L0.00106146 98.2083L0.00106146 84.561H25.1763V77.7374H27.0158V70.9137H29.3148V64.0901H32.2462V57.2664H35.7524V50.4428H40.0633V43.6191H45.1216V36.7958H51.2458V29.9718H58.7436V23.1482H67.9403V16.3249H78.7428V9.50119H90.3936V4.74551H103.125V1.29219L116.29 1.29219V0L233.711 0V1.29219L246.876 1.29219V4.74551H259.608V9.50119H271.259V16.3249H282.061V23.1482H291.257V29.9718H298.755V36.7958H304.879V43.6191H309.938V50.4428H314.249V57.2664H317.755V64.0901H320.686V70.9137H322.985V77.7374H324.825V84.561H350Z" fill="#1C1B79"/>
<path d="M0.00106146 97.7083H0L0 98.7083H0.00106146L0.00106146 97.7083ZM0.00106123 621.481H0L0 622.481H0.00106123L0.00106123 621.481ZM350 84.561H351V83.561H350V84.561ZM324.825 84.561H323.825V85.561H324.825V84.561ZM324.825 77.7374H325.825V76.7374H324.825V77.7374ZM322.985 77.7374H321.985V78.7374H322.985V77.7374ZM322.985 70.9137H323.985V69.9137H322.985V70.9137ZM320.686 70.9137H319.686V71.9137H320.686V70.9137ZM320.686 64.0901H321.686V63.0901H320.686V64.0901ZM317.755 64.0901H316.755V65.0901H317.755V64.0901ZM317.755 57.2664H318.755V56.2664H317.755V57.2664ZM314.249 57.2664H313.249V58.2664H314.249V57.2664ZM314.249 50.4428H315.249V49.4428H314.249V50.4428ZM309.938 50.4428H308.938V51.4428H309.938V50.4428ZM309.938 43.6191H310.938V42.6191H309.938V43.6191ZM304.879 43.6191H303.879V44.6191H304.879V43.6191ZM304.879 36.7958H305.879V35.7958H304.879V36.7958ZM298.755 36.7958H297.755V37.7958H298.755V36.7958ZM298.755 29.9718H299.755V28.9718H298.755V29.9718ZM291.257 29.9718H290.257V30.9718H291.257V29.9718ZM291.257 23.1482H292.257V22.1482H291.257V23.1482ZM282.061 23.1482H281.061V24.1482H282.061V23.1482ZM282.061 16.3249H283.061V15.3249H282.061V16.3249ZM271.259 16.3249H270.259V17.3249H271.259V16.3249ZM271.259 9.50119H272.259V8.50119H271.259V9.50119ZM259.608 9.50119H258.608V10.5012H259.608V9.50119ZM259.608 4.74551H260.608V3.74551H259.608V4.74551ZM246.876 4.74551H245.876V5.74551H246.876V4.74551ZM246.876 1.29219H247.876V0.292193H246.876V1.29219ZM233.711 1.29219H232.711V2.29219H233.711V1.29219ZM233.711 0L234.711 0V-1H233.711V0ZM116.29 0V-1H115.29V0L116.29 0ZM116.29 1.29219V2.29219H117.29V1.29219H116.29ZM103.125 1.29219V0.292193H102.125V1.29219H103.125ZM103.125 4.74551V5.74551H104.125V4.74551H103.125ZM90.3936 4.74551V3.74551H89.3936V4.74551H90.3936ZM90.3936 9.50119V10.5012H91.3936V9.50119H90.3936ZM78.7428 9.50119V8.50119H77.7428V9.50119H78.7428ZM78.7428 16.3249V17.3249H79.7428V16.3249H78.7428ZM67.9403 16.3249V15.3249H66.9403V16.3249H67.9403ZM67.9403 23.1482V24.1482H68.9403V23.1482H67.9403ZM58.7436 23.1482V22.1482H57.7436V23.1482H58.7436ZM58.7436 29.9718V30.9718H59.7436V29.9718H58.7436ZM51.2458 29.9718V28.9718H50.2458V29.9718H51.2458ZM51.2458 36.7958V37.7958H52.2458V36.7958H51.2458ZM45.1216 36.7958V35.7958H44.1216V36.7958H45.1216ZM45.1216 43.6191V44.6191H46.1216V43.6191H45.1216ZM40.0633 43.6191V42.6191H39.0633V43.6191H40.0633ZM40.0633 50.4428V51.4428H41.0633V50.4428H40.0633ZM35.7524 50.4428V49.4428H34.7524V50.4428H35.7524ZM35.7524 57.2664V58.2664H36.7524V57.2664H35.7524ZM32.2462 57.2664V56.2664H31.2462V57.2664H32.2462ZM32.2462 64.0901V65.0901H33.2462V64.0901H32.2462ZM29.3148 64.0901V63.0901H28.3148V64.0901H29.3148ZM29.3148 70.9137V71.9137H30.3148V70.9137H29.3148ZM27.0158 70.9137V69.9137H26.0158V70.9137H27.0158ZM27.0158 77.7374V78.7374H28.0158V77.7374H27.0158ZM25.1763 77.7374V76.7374H24.1763V77.7374H25.1763ZM25.1763 84.561V85.561H26.1763V84.561H25.1763ZM0.00106146 84.561L0.00106146 83.561H-0.998939V84.561H0.00106146ZM0.00106146 98.2083H1.00106H0.00106146ZM350 633.939V634.939H351V633.939H350ZM324.825 633.939V632.939H323.825V633.939H324.825ZM324.825 640.763V641.763H325.825V640.763H324.825ZM322.985 640.763V639.763H321.985V640.763H322.985ZM322.985 647.586V648.586H323.985V647.586H322.985ZM320.686 647.586V646.586H319.686V647.586H320.686ZM320.686 654.41V655.41H321.686V654.41H320.686ZM317.755 654.41V653.41H316.755V654.41H317.755ZM317.755 661.234V662.234H318.755V661.234H317.755ZM314.249 661.234V660.234H313.249V661.234H314.249ZM314.249 668.057V669.057H315.249V668.057H314.249ZM309.938 668.057V667.057H308.938V668.057H309.938ZM309.938 674.881V675.881H310.938V674.881H309.938ZM304.879 674.881V673.881H303.879V674.881H304.879ZM304.879 681.704V682.704H305.879V681.704H304.879ZM298.755 681.704V680.704H297.755V681.704H298.755ZM298.755 688.528V689.528H299.755V688.528H298.755ZM291.257 688.528V687.528H290.257V688.528H291.257ZM291.257 695.352V696.352H292.257V695.352H291.257ZM282.061 695.352V694.352H281.061V695.352H282.061ZM282.061 702.175V703.175H283.061V702.175H282.061ZM271.259 702.175V701.175H270.259V702.175H271.259ZM271.259 708.999V709.999H272.259V708.999H271.259ZM259.608 708.999V707.999H258.608V708.999H259.608ZM259.608 713.755V714.755H260.608V713.755H259.608ZM246.876 713.755V712.755H245.876V713.755H246.876ZM246.876 717.208V718.208H247.876V717.208H246.876ZM233.711 717.208V716.208H232.711V717.208H233.711ZM233.711 718.5V719.5H234.711V718.5H233.711ZM116.29 718.5H115.29V719.5H116.29V718.5ZM116.29 717.208H117.29V716.208H116.29V717.208ZM103.125 717.208H102.125V718.208H103.125V717.208ZM103.125 713.755H104.125V712.755H103.125V713.755ZM90.3936 713.755H89.3936V714.755H90.3936V713.755ZM90.3936 708.999H91.3936V707.999H90.3936V708.999ZM78.7428 708.999H77.7428V709.999H78.7428V708.999ZM78.7428 702.175H79.7428V701.175H78.7428V702.175ZM67.9403 702.175H66.9403V703.175H67.9403V702.175ZM67.9403 695.352H68.9403V694.352H67.9403V695.352ZM58.7436 695.352H57.7436V696.352H58.7436V695.352ZM58.7436 688.528H59.7436V687.528H58.7436V688.528ZM51.2458 688.528H50.2458V689.528H51.2458V688.528ZM51.2458 681.704H52.2458V680.704H51.2458V681.704ZM45.1216 681.704H44.1216V682.704H45.1216V681.704ZM45.1216 674.881H46.1216V673.881H45.1216V674.881ZM40.0633 674.881H39.0633V675.881H40.0633V674.881ZM40.0633 668.057H41.0633V667.057H40.0633V668.057ZM35.7524 668.057H34.7524V669.057H35.7524V668.057ZM35.7524 661.234H36.7524V660.234H35.7524V661.234ZM32.2462 661.234H31.2462V662.234H32.2462V661.234ZM32.2462 654.41H33.2462V653.41H32.2462V654.41ZM29.3148 654.41H28.3148V655.41H29.3148V654.41ZM29.3148 647.586H30.3148V646.586H29.3148V647.586ZM27.0158 647.586H26.0158V648.586H27.0158V647.586ZM27.0158 640.763H28.0158V639.763H27.0158V640.763ZM25.1763 640.763H24.1763V641.763H25.1763V640.763ZM25.1763 633.939H26.1763V632.939H25.1763V633.939ZM0.00106123 633.939H-0.998939V634.939H0.00106123L0.00106123 633.939ZM0.00106123 621.981H-0.998939H0.00106123ZM325.825 84.561V77.7374H323.825V84.561H325.825ZM324.825 76.7374H322.985V78.7374H324.825V76.7374ZM323.985 77.7374V70.9137H321.985V77.7374H323.985ZM322.985 69.9137H320.686V71.9137H322.985V69.9137ZM321.686 70.9137V64.0901H319.686V70.9137H321.686ZM320.686 63.0901H317.755V65.0901H320.686V63.0901ZM318.755 64.0901V57.2664H316.755V64.0901H318.755ZM317.755 56.2664H314.249V58.2664H317.755V56.2664ZM315.249 57.2664V50.4428H313.249V57.2664H315.249ZM314.249 49.4428H309.938V51.4428H314.249V49.4428ZM310.938 50.4428V43.6191H308.938V50.4428H310.938ZM309.938 42.6191H304.879V44.6191H309.938V42.6191ZM305.879 43.6191V36.7958H303.879V43.6191H305.879ZM304.879 35.7958H298.755V37.7958H304.879V35.7958ZM299.755 36.7958V29.9718H297.755V36.7958H299.755ZM298.755 28.9718H291.257V30.9718H298.755V28.9718ZM292.257 29.9718V23.1482H290.257V29.9718H292.257ZM291.257 22.1482H282.061V24.1482H291.257V22.1482ZM283.061 23.1482V16.3249H281.061V23.1482H283.061ZM282.061 15.3249H271.259V17.3249H282.061V15.3249ZM272.259 16.3249V9.50119H270.259V16.3249H272.259ZM271.259 8.50119H259.608V10.5012H271.259V8.50119ZM260.608 9.50119V4.74551H258.608V9.50119H260.608ZM259.608 3.74551H246.876V5.74551H259.608V3.74551ZM247.876 4.74551V1.29219H245.876V4.74551H247.876ZM246.876 0.292193L233.711 0.292193V2.29219H246.876V0.292193ZM234.711 1.29219V0L232.711 0V1.29219H234.711ZM115.29 0V1.29219H117.29V0L115.29 0ZM116.29 0.292193L103.125 0.292193V2.29219H116.29V0.292193ZM102.125 1.29219V4.74551H104.125V1.29219H102.125ZM103.125 3.74551L90.3936 3.74551V5.74551H103.125V3.74551ZM89.3936 4.74551V9.50119H91.3936V4.74551H89.3936ZM90.3936 8.50119H78.7428V10.5012H90.3936V8.50119ZM77.7428 9.50119V16.3249H79.7428V9.50119H77.7428ZM78.7428 15.3249H67.9403V17.3249H78.7428V15.3249ZM66.9403 16.3249V23.1482H68.9403V16.3249H66.9403ZM67.9403 22.1482H58.7436V24.1482H67.9403V22.1482ZM57.7436 23.1482V29.9718H59.7436V23.1482H57.7436ZM58.7436 28.9718H51.2458V30.9718H58.7436V28.9718ZM50.2458 29.9718V36.7958H52.2458V29.9718H50.2458ZM51.2458 35.7958H45.1216V37.7958H51.2458V35.7958ZM44.1216 36.7958V43.6191H46.1216V36.7958H44.1216ZM45.1216 42.6191H40.0633V44.6191H45.1216V42.6191ZM39.0633 43.6191V50.4428H41.0633V43.6191H39.0633ZM40.0633 49.4428H35.7524V51.4428H40.0633V49.4428ZM34.7524 50.4428V57.2664H36.7524V50.4428H34.7524ZM35.7524 56.2664H32.2462V58.2664H35.7524V56.2664ZM31.2462 57.2664V64.0901H33.2462V57.2664H31.2462ZM32.2462 63.0901H29.3148V65.0901H32.2462V63.0901ZM28.3148 64.0901V70.9137H30.3148V64.0901H28.3148ZM29.3148 69.9137H27.0158V71.9137H29.3148V69.9137ZM26.0158 70.9137V77.7374H28.0158V70.9137H26.0158ZM27.0158 76.7374H25.1763V78.7374H27.0158V76.7374ZM24.1763 77.7374V84.561H26.1763V77.7374H24.1763ZM-0.998939 84.561L-0.998939 98.2083H1.00106V84.561H-0.998939ZM323.825 633.939V640.763H325.825V633.939H323.825ZM324.825 639.763H322.985V641.763H324.825V639.763ZM321.985 640.763V647.586H323.985V640.763H321.985ZM322.985 646.586H320.686V648.586H322.985V646.586ZM319.686 647.586V654.41H321.686V647.586H319.686ZM320.686 653.41H317.755V655.41H320.686V653.41ZM316.755 654.41V661.234H318.755V654.41H316.755ZM317.755 660.234H314.249V662.234H317.755V660.234ZM313.249 661.234V668.057H315.249V661.234H313.249ZM314.249 667.057H309.938V669.057H314.249V667.057ZM308.938 668.057V674.881H310.938V668.057H308.938ZM309.938 673.881H304.879V675.881H309.938V673.881ZM303.879 674.881V681.704H305.879V674.881H303.879ZM304.879 680.704H298.755V682.704H304.879V680.704ZM297.755 681.704V688.528H299.755V681.704H297.755ZM298.755 687.528H291.257V689.528H298.755V687.528ZM290.257 688.528V695.352H292.257V688.528H290.257ZM291.257 694.352H282.061V696.352H291.257V694.352ZM281.061 695.352V702.175H283.061V695.352H281.061ZM282.061 701.175H271.259V703.175H282.061V701.175ZM270.259 702.175V708.999H272.259V702.175H270.259ZM271.259 707.999H259.608V709.999H271.259V707.999ZM258.608 708.999V713.755H260.608V708.999H258.608ZM259.608 712.755H246.876V714.755H259.608V712.755ZM245.876 713.755V717.208H247.876V713.755H245.876ZM246.876 716.208H233.711V718.208H246.876V716.208ZM232.711 717.208V718.5H234.711V717.208H232.711ZM117.29 718.5V717.208H115.29V718.5H117.29ZM116.29 716.208H103.125V718.208H116.29V716.208ZM104.125 717.208V713.755H102.125V717.208H104.125ZM103.125 712.755H90.3936V714.755H103.125V712.755ZM91.3936 713.755V708.999H89.3936V713.755H91.3936ZM90.3936 707.999H78.7428V709.999H90.3936V707.999ZM79.7428 708.999V702.175H77.7428V708.999H79.7428ZM78.7428 701.175H67.9403V703.175H78.7428V701.175ZM68.9403 702.175V695.352H66.9403V702.175H68.9403ZM67.9403 694.352H58.7436V696.352H67.9403V694.352ZM59.7436 695.352V688.528H57.7436V695.352H59.7436ZM58.7436 687.528H51.2458V689.528H58.7436V687.528ZM52.2458 688.528V681.704H50.2458V688.528H52.2458ZM51.2458 680.704H45.1216V682.704H51.2458V680.704ZM46.1216 681.704V674.881H44.1216V681.704H46.1216ZM45.1216 673.881H40.0633V675.881H45.1216V673.881ZM41.0633 674.881V668.057H39.0633V674.881H41.0633ZM40.0633 667.057H35.7524V669.057H40.0633V667.057ZM36.7524 668.057V661.234H34.7524V668.057H36.7524ZM35.7524 660.234H32.2462V662.234H35.7524V660.234ZM33.2462 661.234V654.41H31.2462V661.234H33.2462ZM32.2462 653.41H29.3148V655.41H32.2462V653.41ZM30.3148 654.41V647.586H28.3148V654.41H30.3148ZM29.3148 646.586H27.0158V648.586H29.3148V646.586ZM28.0158 647.586V640.763H26.0158V647.586H28.0158ZM27.0158 639.763H25.1763V641.763H27.0158V639.763ZM26.1763 640.763V633.939H24.1763V640.763H26.1763ZM1.00106 633.939L1.00106 621.981H-0.998939L-0.998939 633.939H1.00106ZM1.00106 621.981L1.00106 98.2083H-0.998939L-0.998939 621.981H1.00106ZM351 633.939V84.561H349V633.939H351ZM350 83.561H324.825V85.561H350V83.561ZM233.711 -1L116.29 -1V1L233.711 1V-1ZM25.1763 83.561H0.00106146L0.00106146 85.561H25.1763V83.561ZM350 632.939H324.825V634.939H350V632.939ZM233.711 717.5H116.29V719.5H233.711V717.5ZM25.1763 632.939H0.00106123L0.00106123 634.939H25.1763V632.939Z" fill="white" mask="url(#path-1-inside-1_4272_5224)"/>
</svg>
