<svg width="622" height="1194" viewBox="0 0 622 1194" fill="none" xmlns="http://www.w3.org/2000/svg">
<mask id="path-1-inside-1_4270_4867" fill="white">
<path d="M622 150.144V1043.04H577.26V1055.15H573.991V1067.27H569.905V1079.38H564.696V1091.5H558.465V1103.62H550.804V1115.73H541.814V1127.85H530.93V1139.96H517.606V1152.08H501.262V1164.19H482.065V1176.31H461.36V1184.75H438.735V1190.89H415.338V1193.18H206.664V1190.89H183.268V1184.75H160.642V1176.31H139.937V1164.19H120.74V1152.08H104.396V1139.96H91.0711V1127.85H80.1875V1115.73H71.1982V1103.62H63.5371V1091.5H57.3061V1079.38H52.0966V1067.27H48.011V1055.15H44.7419V1043.04H0.00188596L0.00188596 1021.8L0.00188637 174.375L0.00188637 150.144H44.7419V138.028H48.011V125.912H52.0966V113.796H57.3061V101.68H63.537V89.5644H71.1982V77.4486H80.1875V65.3334H91.0711V53.2169H104.396V41.1011H120.74V28.9859H139.937V16.87H160.642V8.42596H183.268V2.29437H206.664V0L415.338 0V2.29437L438.735 2.29437V8.42596H461.36V16.87H482.065V28.9859H501.262V41.1011L517.606 41.1011V53.2169H530.93V65.3334H541.814V77.4486H550.804V89.5644H558.465V101.68H564.696V113.796H569.905V125.912H573.991V138.028H577.26V150.144H622Z"/>
</mask>
<path d="M622 150.144V1043.04H577.26V1055.15H573.991V1067.27H569.905V1079.38H564.696V1091.5H558.465V1103.62H550.804V1115.73H541.814V1127.85H530.93V1139.96H517.606V1152.08H501.262V1164.19H482.065V1176.31H461.36V1184.75H438.735V1190.89H415.338V1193.18H206.664V1190.89H183.268V1184.75H160.642V1176.31H139.937V1164.19H120.74V1152.08H104.396V1139.96H91.0711V1127.85H80.1875V1115.73H71.1982V1103.62H63.5371V1091.5H57.3061V1079.38H52.0966V1067.27H48.011V1055.15H44.7419V1043.04H0.00188596L0.00188596 1021.8L0.00188637 174.375L0.00188637 150.144H44.7419V138.028H48.011V125.912H52.0966V113.796H57.3061V101.68H63.537V89.5644H71.1982V77.4486H80.1875V65.3334H91.0711V53.2169H104.396V41.1011H120.74V28.9859H139.937V16.87H160.642V8.42596H183.268V2.29437H206.664V0L415.338 0V2.29437L438.735 2.29437V8.42596H461.36V16.87H482.065V28.9859H501.262V41.1011L517.606 41.1011V53.2169H530.93V65.3334H541.814V77.4486H550.804V89.5644H558.465V101.68H564.696V113.796H569.905V125.912H573.991V138.028H577.26V150.144H622Z" fill="white"/>
<path d="M0.00188637 173.875H0L0 174.875H0.00188637L0.00188637 173.875ZM0.00188596 1021.3H0L0 1022.3H0.00188596L0.00188596 1021.3ZM622 150.144H623V149.144H622V150.144ZM577.26 150.144H576.26V151.144H577.26V150.144ZM577.26 138.028H578.26V137.028H577.26V138.028ZM573.991 138.028H572.991V139.028H573.991V138.028ZM573.991 125.912H574.991V124.912H573.991V125.912ZM569.905 125.912H568.905V126.912H569.905V125.912ZM569.905 113.796H570.905V112.796H569.905V113.796ZM564.696 113.796H563.696V114.796H564.696V113.796ZM564.696 101.68H565.696V100.68H564.696V101.68ZM558.465 101.68H557.465V102.68H558.465V101.68ZM558.465 89.5644H559.465V88.5644H558.465V89.5644ZM550.804 89.5644H549.804V90.5644H550.804V89.5644ZM550.804 77.4486H551.804V76.4486H550.804V77.4486ZM541.814 77.4486H540.814V78.4486H541.814V77.4486ZM541.814 65.3334H542.814V64.3334H541.814V65.3334ZM530.93 65.3334H529.93V66.3334H530.93V65.3334ZM530.93 53.2169H531.93V52.2169H530.93V53.2169ZM517.606 53.2169H516.606V54.2169H517.606V53.2169ZM517.606 41.1011H518.606V40.1011H517.606V41.1011ZM501.262 41.1011H500.262V42.1011H501.262V41.1011ZM501.262 28.9859H502.262V27.9859H501.262V28.9859ZM482.065 28.9859H481.065V29.9859H482.065V28.9859ZM482.065 16.87H483.065V15.87H482.065V16.87ZM461.36 16.87H460.36V17.87H461.36V16.87ZM461.36 8.42596H462.36V7.42596H461.36V8.42596ZM438.735 8.42596H437.735V9.42596H438.735V8.42596ZM438.735 2.29437H439.735V1.29437H438.735V2.29437ZM415.338 2.29437H414.338V3.29437H415.338V2.29437ZM415.338 0L416.338 0V-1H415.338V0ZM206.664 0V-1H205.664V0L206.664 0ZM206.664 2.29437V3.29437H207.664V2.29437H206.664ZM183.268 2.29437V1.29437H182.268V2.29437H183.268ZM183.268 8.42596V9.42596H184.268V8.42596H183.268ZM160.642 8.42596V7.42596H159.642V8.42596H160.642ZM160.642 16.87V17.87H161.642V16.87H160.642ZM139.937 16.87V15.87H138.937V16.87H139.937ZM139.937 28.9859V29.9859H140.937V28.9859H139.937ZM120.74 28.9859V27.9859H119.74V28.9859H120.74ZM120.74 41.1011V42.1011H121.74V41.1011H120.74ZM104.396 41.1011V40.1011H103.396V41.1011H104.396ZM104.396 53.2169V54.2169H105.396V53.2169H104.396ZM91.0711 53.2169V52.2169H90.0711V53.2169H91.0711ZM91.0711 65.3334V66.3334H92.0711V65.3334H91.0711ZM80.1875 65.3334V64.3334H79.1875V65.3334H80.1875ZM80.1875 77.4486V78.4486H81.1875V77.4486H80.1875ZM71.1982 77.4486V76.4486H70.1982V77.4486H71.1982ZM71.1982 89.5644V90.5644H72.1982V89.5644H71.1982ZM63.537 89.5644V88.5644H62.537V89.5644H63.537ZM63.537 101.68V102.68H64.537V101.68H63.537ZM57.3061 101.68V100.68H56.3061V101.68H57.3061ZM57.3061 113.796V114.796H58.3061V113.796H57.3061ZM52.0966 113.796V112.796H51.0966V113.796H52.0966ZM52.0966 125.912V126.912H53.0966V125.912H52.0966ZM48.011 125.912V124.912H47.011V125.912H48.011ZM48.011 138.028V139.028H49.011V138.028H48.011ZM44.7419 138.028V137.028H43.7419V138.028H44.7419ZM44.7419 150.144V151.144H45.7419V150.144H44.7419ZM0.00188637 150.144L0.00188637 149.144H-0.998114V150.144H0.00188637ZM0.00188637 174.375H1.00189H0.00188637ZM622 1043.04V1044.04H623V1043.04H622ZM577.26 1043.04V1042.04H576.26V1043.04H577.26ZM577.26 1055.15V1056.15H578.26V1055.15H577.26ZM573.991 1055.15V1054.15H572.991V1055.15H573.991ZM573.991 1067.27V1068.27H574.991V1067.27H573.991ZM569.905 1067.27V1066.27H568.905V1067.27H569.905ZM569.905 1079.38V1080.38H570.905V1079.38H569.905ZM564.696 1079.38V1078.38H563.696V1079.38H564.696ZM564.696 1091.5V1092.5H565.696V1091.5H564.696ZM558.465 1091.5V1090.5H557.465V1091.5H558.465ZM558.465 1103.62V1104.62H559.465V1103.62H558.465ZM550.804 1103.62V1102.62H549.804V1103.62H550.804ZM550.804 1115.73V1116.73H551.804V1115.73H550.804ZM541.814 1115.73V1114.73H540.814V1115.73H541.814ZM541.814 1127.85V1128.85H542.814V1127.85H541.814ZM530.93 1127.85V1126.85H529.93V1127.85H530.93ZM530.93 1139.96V1140.96H531.93V1139.96H530.93ZM517.606 1139.96V1138.96H516.606V1139.96H517.606ZM517.606 1152.08V1153.08H518.606V1152.08H517.606ZM501.262 1152.08V1151.08H500.262V1152.08H501.262ZM501.262 1164.19V1165.19H502.262V1164.19H501.262ZM482.065 1164.19V1163.19H481.065V1164.19H482.065ZM482.065 1176.31V1177.31H483.065V1176.31H482.065ZM461.36 1176.31V1175.31H460.36V1176.31H461.36ZM461.36 1184.75V1185.75H462.36V1184.75H461.36ZM438.735 1184.75V1183.75H437.735V1184.75H438.735ZM438.735 1190.89V1191.89H439.735V1190.89H438.735ZM415.338 1190.89V1189.89H414.338V1190.89H415.338ZM415.338 1193.18V1194.18H416.338V1193.18H415.338ZM206.664 1193.18H205.664V1194.18H206.664V1193.18ZM206.664 1190.89H207.664V1189.89H206.664V1190.89ZM183.268 1190.89H182.268V1191.89H183.268V1190.89ZM183.268 1184.75H184.268V1183.75H183.268V1184.75ZM160.642 1184.75H159.642V1185.75H160.642V1184.75ZM160.642 1176.31H161.642V1175.31H160.642V1176.31ZM139.937 1176.31H138.937V1177.31H139.937V1176.31ZM139.937 1164.19H140.937V1163.19H139.937V1164.19ZM120.74 1164.19H119.74V1165.19H120.74V1164.19ZM120.74 1152.08H121.74V1151.08H120.74V1152.08ZM104.396 1152.08H103.396V1153.08H104.396V1152.08ZM104.396 1139.96H105.396V1138.96H104.396V1139.96ZM91.0711 1139.96H90.0711V1140.96H91.0711V1139.96ZM91.0711 1127.85H92.0711V1126.85H91.0711V1127.85ZM80.1875 1127.85H79.1875V1128.85H80.1875V1127.85ZM80.1875 1115.73H81.1875V1114.73H80.1875V1115.73ZM71.1982 1115.73H70.1982V1116.73H71.1982V1115.73ZM71.1982 1103.62H72.1982V1102.62H71.1982V1103.62ZM63.5371 1103.62H62.5371V1104.62H63.5371V1103.62ZM63.5371 1091.5H64.537V1090.5H63.5371V1091.5ZM57.3061 1091.5H56.3061V1092.5H57.3061V1091.5ZM57.3061 1079.38H58.3061V1078.38H57.3061V1079.38ZM52.0966 1079.38H51.0966V1080.38H52.0966V1079.38ZM52.0966 1067.27H53.0966V1066.27H52.0966V1067.27ZM48.011 1067.27H47.011V1068.27H48.011V1067.27ZM48.011 1055.15H49.011V1054.15H48.011V1055.15ZM44.7419 1055.15H43.7419V1056.15H44.7419V1055.15ZM44.7419 1043.04H45.7419V1042.04H44.7419V1043.04ZM0.00188596 1043.04H-0.998114V1044.04H0.00188596L0.00188596 1043.04ZM0.00188596 1021.8H-0.998114H0.00188596ZM578.26 150.144V138.028H576.26V150.144H578.26ZM577.26 137.028H573.991V139.028H577.26V137.028ZM574.991 138.028V125.912H572.991V138.028H574.991ZM573.991 124.912H569.905V126.912H573.991V124.912ZM570.905 125.912V113.796H568.905V125.912H570.905ZM569.905 112.796H564.696V114.796H569.905V112.796ZM565.696 113.796V101.68H563.696V113.796H565.696ZM564.696 100.68H558.465V102.68H564.696V100.68ZM559.465 101.68V89.5644H557.465V101.68H559.465ZM558.465 88.5644H550.804V90.5644H558.465V88.5644ZM551.804 89.5644V77.4486H549.804V89.5644H551.804ZM550.804 76.4486H541.814V78.4486H550.804V76.4486ZM542.814 77.4486V65.3334H540.814V77.4486H542.814ZM541.814 64.3334H530.93V66.3334H541.814V64.3334ZM531.93 65.3334V53.2169H529.93V65.3334H531.93ZM530.93 52.2169H517.606V54.2169H530.93V52.2169ZM518.606 53.2169V41.1011H516.606V53.2169H518.606ZM517.606 40.1011L501.262 40.1011V42.1011L517.606 42.1011V40.1011ZM502.262 41.1011V28.9859H500.262V41.1011H502.262ZM501.262 27.9859H482.065V29.9859H501.262V27.9859ZM483.065 28.9859V16.87H481.065V28.9859H483.065ZM482.065 15.87H461.36V17.87H482.065V15.87ZM462.36 16.87V8.42596H460.36V16.87H462.36ZM461.36 7.42596L438.735 7.42596V9.42596H461.36V7.42596ZM439.735 8.42596V2.29437H437.735V8.42596H439.735ZM438.735 1.29437L415.338 1.29437V3.29437L438.735 3.29437V1.29437ZM416.338 2.29437V0L414.338 0V2.29437L416.338 2.29437ZM205.664 0V2.29437H207.664V0L205.664 0ZM206.664 1.29437H183.268V3.29437H206.664V1.29437ZM182.268 2.29437V8.42596H184.268V2.29437H182.268ZM183.268 7.42596H160.642V9.42596H183.268V7.42596ZM159.642 8.42596V16.87H161.642V8.42596H159.642ZM160.642 15.87H139.937V17.87H160.642V15.87ZM138.937 16.87V28.9859H140.937V16.87H138.937ZM139.937 27.9859H120.74V29.9859H139.937V27.9859ZM119.74 28.9859V41.1011H121.74V28.9859H119.74ZM120.74 40.1011H104.396V42.1011H120.74V40.1011ZM103.396 41.1011V53.2169H105.396V41.1011H103.396ZM104.396 52.2169H91.0711V54.2169H104.396V52.2169ZM90.0711 53.2169V65.3334H92.0711V53.2169H90.0711ZM91.0711 64.3334H80.1875V66.3334H91.0711V64.3334ZM79.1875 65.3334V77.4486H81.1875V65.3334H79.1875ZM80.1875 76.4486H71.1982V78.4486H80.1875V76.4486ZM70.1982 77.4486V89.5644H72.1982V77.4486H70.1982ZM71.1982 88.5644H63.537V90.5644H71.1982V88.5644ZM62.537 89.5644V101.68H64.537V89.5644H62.537ZM63.537 100.68H57.3061V102.68H63.537V100.68ZM56.3061 101.68V113.796H58.3061V101.68H56.3061ZM57.3061 112.796H52.0966V114.796H57.3061V112.796ZM51.0966 113.796V125.912H53.0966V113.796H51.0966ZM52.0966 124.912H48.011V126.912H52.0966V124.912ZM47.011 125.912V138.028H49.011V125.912H47.011ZM48.011 137.028H44.7419V139.028H48.011V137.028ZM43.7419 138.028V150.144H45.7419V138.028H43.7419ZM-0.998114 150.144L-0.998114 174.375H1.00189V150.144H-0.998114ZM576.26 1043.04V1055.15H578.26V1043.04H576.26ZM577.26 1054.15H573.991V1056.15H577.26V1054.15ZM572.991 1055.15V1067.27H574.991V1055.15H572.991ZM573.991 1066.27H569.905V1068.27H573.991V1066.27ZM568.905 1067.27V1079.38H570.905V1067.27H568.905ZM569.905 1078.38H564.696V1080.38H569.905V1078.38ZM563.696 1079.38V1091.5H565.696V1079.38H563.696ZM564.696 1090.5H558.465V1092.5H564.696V1090.5ZM557.465 1091.5V1103.62H559.465V1091.5H557.465ZM558.465 1102.62H550.804V1104.62H558.465V1102.62ZM549.804 1103.62V1115.73H551.804V1103.62H549.804ZM550.804 1114.73H541.814V1116.73H550.804V1114.73ZM540.814 1115.73V1127.85H542.814V1115.73H540.814ZM541.814 1126.85H530.93V1128.85H541.814V1126.85ZM529.93 1127.85V1139.96H531.93V1127.85H529.93ZM530.93 1138.96H517.606V1140.96H530.93V1138.96ZM516.606 1139.96V1152.08H518.606V1139.96H516.606ZM517.606 1151.08H501.262V1153.08H517.606V1151.08ZM500.262 1152.08V1164.19H502.262V1152.08H500.262ZM501.262 1163.19H482.065V1165.19H501.262V1163.19ZM481.065 1164.19V1176.31H483.065V1164.19H481.065ZM482.065 1175.31H461.36V1177.31H482.065V1175.31ZM460.36 1176.31V1184.75H462.36V1176.31H460.36ZM461.36 1183.75H438.735V1185.75H461.36V1183.75ZM437.735 1184.75V1190.89H439.735V1184.75H437.735ZM438.735 1189.89H415.338V1191.89H438.735V1189.89ZM414.338 1190.89V1193.18H416.338V1190.89H414.338ZM207.664 1193.18V1190.89H205.664V1193.18H207.664ZM206.664 1189.89H183.268V1191.89H206.664V1189.89ZM184.268 1190.89V1184.75H182.268V1190.89H184.268ZM183.268 1183.75H160.642V1185.75H183.268V1183.75ZM161.642 1184.75V1176.31H159.642V1184.75H161.642ZM160.642 1175.31H139.937V1177.31H160.642V1175.31ZM140.937 1176.31V1164.19H138.937V1176.31H140.937ZM139.937 1163.19H120.74V1165.19H139.937V1163.19ZM121.74 1164.19V1152.08H119.74V1164.19H121.74ZM120.74 1151.08H104.396V1153.08H120.74V1151.08ZM105.396 1152.08V1139.96H103.396V1152.08H105.396ZM104.396 1138.96H91.0711V1140.96H104.396V1138.96ZM92.0711 1139.96V1127.85H90.0711V1139.96H92.0711ZM91.0711 1126.85H80.1875V1128.85H91.0711V1126.85ZM81.1875 1127.85V1115.73H79.1875V1127.85H81.1875ZM80.1875 1114.73H71.1982V1116.73H80.1875V1114.73ZM72.1982 1115.73V1103.62H70.1982V1115.73H72.1982ZM71.1982 1102.62H63.5371V1104.62H71.1982V1102.62ZM64.537 1103.62V1091.5H62.5371V1103.62H64.537ZM63.5371 1090.5H57.3061V1092.5H63.5371V1090.5ZM58.3061 1091.5V1079.38H56.3061V1091.5H58.3061ZM57.3061 1078.38H52.0966V1080.38H57.3061V1078.38ZM53.0966 1079.38V1067.27H51.0966V1079.38H53.0966ZM52.0966 1066.27H48.011V1068.27H52.0966V1066.27ZM49.011 1067.27V1055.15H47.011V1067.27H49.011ZM48.011 1054.15H44.7419V1056.15H48.011V1054.15ZM45.7419 1055.15V1043.04H43.7419V1055.15H45.7419ZM1.00189 1043.04L1.00189 1021.8H-0.998114L-0.998114 1043.04H1.00189ZM1.00189 1021.8L1.00189 174.375H-0.998114L-0.998114 1021.8H1.00189ZM623 1043.04V150.144H621V1043.04H623ZM622 149.144H577.26V151.144H622V149.144ZM415.338 -1L206.664 -1V1L415.338 1V-1ZM44.7419 149.144H0.00188637L0.00188637 151.144H44.7419V149.144ZM622 1042.04H577.26V1044.04H622V1042.04ZM415.338 1192.18H206.664V1194.18H415.338V1192.18ZM44.7419 1042.04H0.00188596L0.00188596 1044.04H44.7419V1042.04Z" fill="white" mask="url(#path-1-inside-1_4270_4867)"/>
</svg>
